<?xml version="1.0" encoding="UTF-8" standalone="no"?>
<!-- Created with Inkscape (http://www.inkscape.org/) -->

<svg
   xmlns:dc="http://purl.org/dc/elements/1.1/"
   xmlns:cc="http://creativecommons.org/ns#"
   xmlns:rdf="http://www.w3.org/1999/02/22-rdf-syntax-ns#"
   xmlns:svg="http://www.w3.org/2000/svg"
   xmlns="http://www.w3.org/2000/svg"
   xmlns:xlink="http://www.w3.org/1999/xlink"
   xmlns:sodipodi="http://sodipodi.sourceforge.net/DTD/sodipodi-0.dtd"
   xmlns:inkscape="http://www.inkscape.org/namespaces/inkscape"
   width="1920"
   height="1200"
   id="svg2915"
   version="1.1"
   inkscape:version="0.92.5 (2060ec1f9f, 2020-04-08)"
   sodipodi:docname="aldos-abstracto01-1920x1200.svgz"
   inkscape:export-filename="/tmp/wallpaper_1440x1152.png"
   inkscape:export-xdpi="90"
   inkscape:export-ydpi="90">
  <defs
     id="defs2917">
    <linearGradient
       inkscape:collect="always"
       id="linearGradient924">
      <stop
         style="stop-color:#d5e5ff;stop-opacity:1"
         offset="0"
         id="stop920" />
      <stop
         style="stop-color:#5599ff;stop-opacity:1"
         offset="1"
         id="stop922" />
    </linearGradient>
    <inkscape:perspective
       sodipodi:type="inkscape:persp3d"
       inkscape:vp_x="0 : 576 : 1"
       inkscape:vp_y="0 : 1000 : 0"
       inkscape:vp_z="1440 : 576 : 1"
       inkscape:persp3d-origin="720 : 384 : 1"
       id="perspective4012" />
    <linearGradient
       inkscape:collect="always"
       id="linearGradient5002">
      <stop
         style="stop-color:#204a87;stop-opacity:1;"
         offset="0"
         id="stop5004" />
      <stop
         style="stop-color:#204a87;stop-opacity:0;"
         offset="1"
         id="stop5006" />
    </linearGradient>
    <linearGradient
       id="linearGradient3244">
      <stop
         style="stop-color:#016afa;stop-opacity:1"
         offset="0"
         id="stop3246" />
      <stop
         id="stop4424"
         offset="0.44961542"
         style="stop-color:#417dcd;stop-opacity:0.7764706" />
      <stop
         style="stop-color:#2db18b;stop-opacity:1"
         offset="1"
         id="stop3248" />
    </linearGradient>
    <linearGradient
       inkscape:collect="always"
       xlink:href="#linearGradient5002"
       id="linearGradient5008"
       x1="1148.4664"
       y1="779.21381"
       x2="1138.2744"
       y2="782.4494"
       gradientUnits="userSpaceOnUse" />
    <linearGradient
       inkscape:collect="always"
       xlink:href="#linearGradient5002"
       id="linearGradient5012"
       gradientUnits="userSpaceOnUse"
       x1="1148.4664"
       y1="779.21381"
       x2="1138.2744"
       y2="782.4494"
       gradientTransform="matrix(0.49770898,0,0,0.49770898,565.92819,392.88664)" />
    <linearGradient
       inkscape:collect="always"
       xlink:href="#linearGradient5002-4"
       id="linearGradient5008-5"
       x1="1148.4664"
       y1="779.21381"
       x2="1138.2744"
       y2="782.4494"
       gradientUnits="userSpaceOnUse" />
    <linearGradient
       inkscape:collect="always"
       id="linearGradient5002-4">
      <stop
         style="stop-color:#204a87;stop-opacity:1;"
         offset="0"
         id="stop5004-9" />
      <stop
         style="stop-color:#204a87;stop-opacity:0;"
         offset="1"
         id="stop5006-8" />
    </linearGradient>
    <clipPath
       clipPathUnits="userSpaceOnUse"
       id="clipPath927">
      <rect
         y="69.785065"
         x="-260.9733"
         height="1200"
         width="1920"
         id="rect929"
         style="opacity:0.98999999;fill:url(#linearGradient931);fill-opacity:1;fill-rule:evenodd;stroke:none" />
    </clipPath>
    <linearGradient
       inkscape:collect="always"
       xlink:href="#linearGradient924"
       id="linearGradient931"
       gradientUnits="userSpaceOnUse"
       gradientTransform="translate(6e-5,-3e-6)"
       x1="668.05902"
       y1="1272.8818"
       x2="655.67188"
       y2="65.139877" />
    <clipPath
       clipPathUnits="userSpaceOnUse"
       id="clipPath933">
      <rect
         y="69.785065"
         x="-260.9733"
         height="1200"
         width="1920"
         id="rect935"
         style="opacity:0.98999999;fill:url(#linearGradient937);fill-opacity:1;fill-rule:evenodd;stroke:none" />
    </clipPath>
    <linearGradient
       inkscape:collect="always"
       xlink:href="#linearGradient924"
       id="linearGradient937"
       gradientUnits="userSpaceOnUse"
       gradientTransform="translate(6e-5,-3e-6)"
       x1="668.05902"
       y1="1272.8818"
       x2="655.67188"
       y2="65.139877" />
    <clipPath
       clipPathUnits="userSpaceOnUse"
       id="clipPath939">
      <rect
         y="69.785065"
         x="-260.9733"
         height="1200"
         width="1920"
         id="rect941"
         style="opacity:0.98999999;fill:url(#linearGradient943);fill-opacity:1;fill-rule:evenodd;stroke:none" />
    </clipPath>
    <linearGradient
       inkscape:collect="always"
       xlink:href="#linearGradient924"
       id="linearGradient943"
       gradientUnits="userSpaceOnUse"
       gradientTransform="translate(6e-5,-3e-6)"
       x1="668.05902"
       y1="1272.8818"
       x2="655.67188"
       y2="65.139877" />
    <filter
       inkscape:collect="always"
       style="color-interpolation-filters:sRGB"
       id="filter1160"
       x="-0.049792505"
       width="1.099585"
       y="-0.12996408"
       height="1.2599282">
      <feGaussianBlur
         inkscape:collect="always"
         stdDeviation="39.911562"
         id="feGaussianBlur1162" />
    </filter>
    <filter
       inkscape:collect="always"
       style="color-interpolation-filters:sRGB"
       id="filter1179"
       x="-0.068211701"
       width="1.1364234"
       y="-0.10929819"
       height="1.2185964">
      <feGaussianBlur
         inkscape:collect="always"
         stdDeviation="54.719617"
         id="feGaussianBlur1181" />
    </filter>
    <filter
       inkscape:collect="always"
       style="color-interpolation-filters:sRGB"
       id="filter1198"
       x="-0.054445182"
       width="1.1088904"
       y="-0.10626225"
       height="1.2125245">
      <feGaussianBlur
         inkscape:collect="always"
         stdDeviation="43.612496"
         id="feGaussianBlur1200" />
    </filter>
    <clipPath
       clipPathUnits="userSpaceOnUse"
       id="clipPath1217">
      <rect
         y="-74.322067"
         x="-169.68877"
         height="1083.1515"
         width="1733.0424"
         id="rect1219"
         style="opacity:1;fill:#004455;fill-opacity:1;fill-rule:evenodd;stroke:none;stroke-width:0.90262622" />
    </clipPath>
    <clipPath
       clipPathUnits="userSpaceOnUse"
       id="clipPath1221">
      <rect
         y="69.785065"
         x="-260.9733"
         height="1200"
         width="1920"
         id="rect1223"
         style="opacity:1;fill:#004455;fill-opacity:1;fill-rule:evenodd;stroke:none" />
    </clipPath>
    <clipPath
       clipPathUnits="userSpaceOnUse"
       id="clipPath1225">
      <rect
         y="50.855877"
         x="-243.05869"
         height="1201.6937"
         width="1896.558"
         id="rect1227"
         style="opacity:1;fill:#004455;fill-opacity:1;fill-rule:evenodd;stroke:none;stroke-width:0.99457771" />
    </clipPath>
    <clipPath
       clipPathUnits="userSpaceOnUse"
       id="clipPath1229">
      <rect
         y="69.785065"
         x="-260.9733"
         height="1200"
         width="1920"
         id="rect1231"
         style="opacity:1;fill:#004455;fill-opacity:1;fill-rule:evenodd;stroke:none" />
    </clipPath>
    <clipPath
       clipPathUnits="userSpaceOnUse"
       id="clipPath1233">
      <rect
         y="58.136654"
         x="-250.38699"
         height="1202.0305"
         width="1882.5586"
         id="rect1235"
         style="opacity:1;fill:#004455;fill-opacity:1;fill-rule:evenodd;stroke:none;stroke-width:0.99103904" />
    </clipPath>
    <clipPath
       clipPathUnits="userSpaceOnUse"
       id="clipPath1237">
      <rect
         y="69.785065"
         x="-260.9733"
         height="1200"
         width="1920"
         id="rect1239"
         style="opacity:1;fill:#004455;fill-opacity:1;fill-rule:evenodd;stroke:none" />
    </clipPath>
    <clipPath
       clipPathUnits="userSpaceOnUse"
       id="clipPath1241">
      <rect
         y="69.785065"
         x="-260.9733"
         height="1200"
         width="1920"
         id="rect1243"
         style="opacity:1;fill:#004455;fill-opacity:1;fill-rule:evenodd;stroke:none" />
    </clipPath>
    <clipPath
       clipPathUnits="userSpaceOnUse"
       id="clipPath1245">
      <rect
         y="69.785065"
         x="-260.9733"
         height="1200"
         width="1920"
         id="rect1247"
         style="opacity:1;fill:#004455;fill-opacity:1;fill-rule:evenodd;stroke:none" />
    </clipPath>
    <clipPath
       clipPathUnits="userSpaceOnUse"
       id="clipPath1221-4">
      <rect
         y="69.785065"
         x="-260.9733"
         height="1200"
         width="1920"
         id="rect1223-7"
         style="opacity:1;fill:#004455;fill-opacity:1;fill-rule:evenodd;stroke:none" />
    </clipPath>
    <filter
       inkscape:collect="always"
       style="color-interpolation-filters:sRGB"
       id="filter1274"
       x="-0.058091255"
       width="1.1161825"
       y="-0.15162476"
       height="1.3032495">
      <feGaussianBlur
         inkscape:collect="always"
         stdDeviation="46.563488"
         id="feGaussianBlur1276" />
    </filter>
    <clipPath
       clipPathUnits="userSpaceOnUse"
       id="clipPath1229-6">
      <rect
         y="69.785065"
         x="-260.9733"
         height="1200"
         width="1920"
         id="rect1231-9"
         style="opacity:1;fill:#004455;fill-opacity:1;fill-rule:evenodd;stroke:none" />
    </clipPath>
    <clipPath
       clipPathUnits="userSpaceOnUse"
       id="clipPath1217-7">
      <rect
         y="-74.322067"
         x="-169.68877"
         height="1083.1515"
         width="1733.0424"
         id="rect1219-4"
         style="opacity:1;fill:#004455;fill-opacity:1;fill-rule:evenodd;stroke:none;stroke-width:0.90262622" />
    </clipPath>
    <filter
       inkscape:collect="always"
       style="color-interpolation-filters:sRGB"
       id="filter1052-7-5"
       x="-0.038185075"
       width="1.0763701"
       y="-0.13995624"
       height="1.2799125">
      <feGaussianBlur
         inkscape:collect="always"
         stdDeviation="3.3660098"
         id="feGaussianBlur1054-5-2" />
    </filter>
    <filter
       inkscape:collect="always"
       style="color-interpolation-filters:sRGB"
       id="filter1138-3-5"
       x="-0.047098301"
       width="1.0941966"
       y="-0.082636803"
       height="1.1652735">
      <feGaussianBlur
         inkscape:collect="always"
         stdDeviation="4.1856334"
         id="feGaussianBlur1140-5-4" />
    </filter>
  </defs>
  <sodipodi:namedview
     id="base"
     pagecolor="#ffffff"
     bordercolor="#666666"
     borderopacity="1.0"
     inkscape:pageopacity="0.0"
     inkscape:pageshadow="2"
     inkscape:zoom="0.32291666"
     inkscape:cx="1187.5088"
     inkscape:cy="569.8528"
     inkscape:current-layer="layer1"
     inkscape:document-units="px"
     showgrid="false"
     inkscape:snap-global="false"
     inkscape:window-width="1306"
     inkscape:window-height="739"
     inkscape:window-x="54"
     inkscape:window-y="0"
     inkscape:window-maximized="1"
     fit-margin-top="0"
     fit-margin-left="0"
     fit-margin-right="0"
     fit-margin-bottom="0"
     showguides="true"
     inkscape:guide-bbox="true">
    <sodipodi:guide
       position="330.51051,134.68646"
       orientation="0,1334.6639"
       id="guide3451"
       inkscape:locked="false" />
    <sodipodi:guide
       position="1665.1744,134.68646"
       orientation="-1000.998,0"
       id="guide3453"
       inkscape:locked="false" />
    <sodipodi:guide
       position="1665.1744,1135.6844"
       orientation="0,-1334.6639"
       id="guide3455"
       inkscape:locked="false" />
    <sodipodi:guide
       position="330.51051,1135.6844"
       orientation="1000.998,0"
       id="guide3457"
       inkscape:locked="false" />
    <sodipodi:guide
       position="960.20541,928.45403"
       orientation="1,0"
       id="guide871"
       inkscape:locked="false" />
    <sodipodi:guide
       position="899.98728,599.99152"
       orientation="0,1"
       id="guide873"
       inkscape:locked="false" />
    <sodipodi:guide
       position="749.41937,195.09678"
       orientation="1,0"
       id="guide1369"
       inkscape:locked="false" />
  </sodipodi:namedview>
  <metadata
     id="metadata2920">
    <rdf:RDF>
      <cc:Work
         rdf:about="">
        <dc:format>image/svg+xml</dc:format>
        <dc:type
           rdf:resource="http://purl.org/dc/dcmitype/StillImage" />
        <dc:title></dc:title>
      </cc:Work>
    </rdf:RDF>
  </metadata>
  <g
     id="layer1"
     inkscape:label="Layer 1"
     inkscape:groupmode="layer"
     transform="translate(260.9733,-69.785065)">
    <rect
       y="69.785065"
       x="-260.9733"
       height="1200"
       width="1920"
       id="rect9055"
       style="opacity:1;fill:#004455;fill-opacity:1;fill-rule:evenodd;stroke:none"
       clip-path="url(#clipPath1245)" />
    <path
       style="opacity:0.7;fill:#00222b;fill-opacity:1;stroke:none;stroke-width:0.80672359;stroke-miterlimit:4;stroke-dasharray:none;stroke-opacity:0.77647059;filter:url(#filter1198)"
       d="M -305.59341,786.14996 645.36528,18.567504 1613.8171,20.076351 1599.9715,1003.5832 H -308.66689 Z"
       id="rect920-3-6-5"
       inkscape:connector-curvature="0"
       sodipodi:nodetypes="cccccc"
       clip-path="url(#clipPath1241)" />
    <path
       style="opacity:1;fill:#faa70e;fill-opacity:1;stroke:none;stroke-width:0.80672359;stroke-miterlimit:4;stroke-dasharray:none;stroke-opacity:0.77647059"
       d="M -260.24307,836.0558 690.71562,68.47334 1659.1674,69.982187 1645.3218,1053.4891 H -263.31655 Z"
       id="rect920-3-6"
       inkscape:connector-curvature="0"
       sodipodi:nodetypes="cccccc"
       clip-path="url(#clipPath1237)" />
    <path
       style="opacity:0.6;fill:#00222b;fill-opacity:1;stroke:none;stroke-width:0.89384478;stroke-miterlimit:4;stroke-dasharray:none;stroke-opacity:0.77647059;filter:url(#filter1179)"
       d="M -288.40709,895.07548 1633.7991,-40.150559 1621.5163,1161.398 H -291.4876 Z"
       id="rect920-3-1"
       inkscape:connector-curvature="0"
       sodipodi:nodetypes="ccccc"
       transform="matrix(1.0198886,0,0,0.99831078,-5.6064534,11.746618)"
       clip-path="url(#clipPath1233)" />
    <path
       style="opacity:1;fill:#ffffff;fill-opacity:1;stroke:none;stroke-width:0.89384478;stroke-miterlimit:4;stroke-dasharray:none;stroke-opacity:0.77647059"
       d="M -260.08254,966.6495 1662.1236,31.423468 1649.8409,1232.9721 H -263.16305 Z"
       id="rect920-3"
       inkscape:connector-curvature="0"
       sodipodi:nodetypes="ccccc"
       clip-path="url(#clipPath1229)" />
    <path
       style="opacity:0.7;fill:#1c2224;fill-opacity:1;stroke:none;stroke-width:0.89562815;stroke-miterlimit:4;stroke-dasharray:none;stroke-opacity:0.77647059;filter:url(#filter1160)"
       d="m -254.83716,1043.7207 1921.92656,-560.5164 -3.0929,737.0325 H -256.64889 Z"
       id="rect920-6"
       inkscape:connector-curvature="0"
       sodipodi:nodetypes="ccccc"
       transform="matrix(1.0123603,0,0,0.99859053,-14.910338,19.000869)"
       clip-path="url(#clipPath1225)" />
    <path
       style="opacity:1;fill:#41408c;fill-opacity:1;stroke:none;stroke-width:0.89562815;stroke-miterlimit:4;stroke-dasharray:none;stroke-opacity:0.77647059"
       d="M -261.35135,1094.166 1660.5752,533.64963 1657.4823,1270.6821 H -263.16308 Z"
       id="rect920"
       inkscape:connector-curvature="0"
       sodipodi:nodetypes="ccccc"
       clip-path="url(#clipPath1221)" />
    <path
       transform="matrix(1.0044473,0,0,0.91438416,-5.0328922,105.16853)"
       style="opacity:0.65799997;fill:#000055;fill-opacity:1;stroke:none;stroke-width:0.89562815;stroke-miterlimit:4;stroke-dasharray:none;stroke-opacity:0.77647059;filter:url(#filter1274)"
       d="M -261.35135,1094.166 1660.5752,533.64963 1657.4823,1270.6821 H -263.16308 Z"
       id="rect920-65"
       inkscape:connector-curvature="0"
       sodipodi:nodetypes="ccccc"
       clip-path="url(#clipPath1221-4)" />
    <g
       transform="matrix(1.3085883,0,0,1.3085883,1084.1025,805.39498)"
       id="g1244-6-7"
       clip-path="url(#clipPath1217-7)">
      <g
         id="g1190-2-4">
        <g
           transform="translate(3.6000025,4.2999995)"
           id="g1090-3-9-4"
           style="fill:#808080;stroke:#cccccc;filter:url(#filter1052-7-5)">
          <g
             aria-label="OS"
             transform="matrix(1.0073412,0,0,0.99271225,-63.9768,-45.401397)"
             id="text2806-6-1-3"
             style="font-style:normal;font-variant:normal;font-weight:normal;font-stretch:normal;font-size:80.51139832px;line-height:1.25;font-family:Architekt;-inkscape-font-specification:'Architekt, Normal';font-variant-ligatures:normal;font-variant-caps:normal;font-variant-numeric:normal;opacity:1;fill:#808080;fill-opacity:1;stroke:#cccccc;stroke-width:2.01277995;stroke-opacity:1">
            <path
               d="m 248.64493,257.64815 q 0,11.91568 -8.21216,20.44989 -8.13166,8.53421 -20.77194,8.53421 -12.72081,0 -20.85246,-8.85625 -8.13165,-8.85626 -8.13165,-20.12785 0,-12.07671 8.69523,-20.53041 8.69523,-8.4537 20.28888,-8.4537 12.15722,0 20.5304,8.53421 8.4537,8.53421 8.4537,20.4499 z m -28.9841,-25.68314 q -10.46649,0 -17.87354,7.56807 -7.40704,7.56807 -7.40704,18.11507 0,10.22494 7.16551,17.95404 7.16552,7.64858 18.11507,7.64858 10.78852,0 17.95404,-7.40705 7.24602,-7.48756 7.24602,-18.19557 0,-10.62751 -7.48756,-18.11507 -7.40705,-7.56807 -17.7125,-7.56807 z"
               style="fill:#808080;fill-opacity:1;stroke:#cccccc;stroke-width:2.01277995;stroke-opacity:1"
               id="path135-7-2-0"
               inkscape:connector-curvature="0" />
            <path
               d="m 276.16851,285.5856 h -21.41604 v -3.30097 h 20.61092 q 5.15273,0 8.69523,-2.25431 3.54251,-2.33484 3.54251,-7.16552 0,-8.21216 -8.61472,-12.07671 l -16.02177,-5.47477 q -8.61472,-3.86455 -8.61472,-12.15723 0,-6.92398 4.34761,-10.22494 4.42813,-3.30097 10.14444,-3.30097 h 19.24222 v 3.30097 h -18.3566 q -5.15272,0 -8.45369,2.49585 -3.22046,2.49585 -3.22046,7.56807 0,6.52143 8.29268,9.66137 l 16.34381,5.79682 q 8.61472,4.50864 8.61472,14.25052 0,5.15273 -3.78404,9.01727 -3.78403,3.86455 -11.3521,3.86455 z"
               style="fill:#808080;fill-opacity:1;stroke:#cccccc;stroke-width:2.01277995;stroke-opacity:1"
               id="path137-5-7-7"
               inkscape:connector-curvature="0" />
          </g>
          <g
             aria-label="ald"
             transform="matrix(1.0419925,0,0,0.93910787,-64.83845,-38.798394)"
             id="text2798-3-0-8"
             style="font-style:normal;font-weight:normal;font-size:81.58699799px;line-height:1.25;font-family:sans-serif;opacity:1;fill:#808080;fill-opacity:1;stroke:#cccccc;stroke-width:2.03966999;stroke-opacity:1">
            <path
               d="m 112.37161,290.68246 q -1.63174,1.38698 -3.01872,2.28444 -1.30539,0.89745 -3.1003,1.79491 -2.77396,1.38698 -7.342834,1.38698 -8.077113,0 -13.788202,-5.46633 -5.71109,-5.54791 -5.71109,-13.86979 0,-8.07711 5.71109,-13.86979 5.792676,-5.87426 13.625028,-5.87426 8.566638,0 14.114548,5.95585 5.62951,5.95585 5.62951,13.46185 v 19.00977 h -3.58983 v -18.11231 q 0,-6.11902 -4.4057,-11.58535 -4.32411,-5.46633 -11.585354,-5.46633 -6.52696,0 -11.259006,4.73204 -4.650458,4.73205 -4.650458,11.74853 0,6.69014 4.568871,11.34059 4.568872,4.65046 11.340593,4.65046 3.997764,0 6.853304,-1.46856 2.93714,-1.46857 6.60855,-4.97681 z"
               style="font-style:normal;font-variant:normal;font-weight:normal;font-stretch:normal;font-size:81.58699799px;font-family:Architekt;-inkscape-font-specification:'Architekt, Normal';font-variant-ligatures:normal;font-variant-caps:normal;font-variant-numeric:normal;fill:#808080;fill-opacity:1;stroke:#cccccc;stroke-width:2.03966999;stroke-opacity:1"
               id="path128-5-9-6"
               inkscape:connector-curvature="0" />
            <path
               d="m 130.06961,295.49609 h -3.50824 v -56.70296 h 3.50824 z"
               style="font-style:normal;font-variant:normal;font-weight:normal;font-stretch:normal;font-size:81.58699799px;font-family:Architekt;-inkscape-font-specification:'Architekt, Normal';font-variant-ligatures:normal;font-variant-caps:normal;font-variant-numeric:normal;fill:#808080;fill-opacity:1;stroke:#cccccc;stroke-width:2.03966999;stroke-opacity:1"
               id="path130-6-3-8"
               inkscape:connector-curvature="0" />
            <path
               d="m 176.96429,276.07839 q 0,8.72981 -5.71109,14.4409 -5.71109,5.6295 -13.7882,5.6295 -7.83235,0 -13.70662,-5.6295 -2.77396,-2.77396 -4.24252,-6.2822 -1.46857,-3.50824 -1.46857,-7.75077 0,-8.1587 5.46633,-13.7882 5.54792,-5.6295 13.95138,-5.6295 4.81363,0 7.66918,1.46856 2.85554,1.46857 5.71109,3.75301 v 4.32411 q -3.75301,-3.50824 -6.9349,-4.97681 -3.1003,-1.46857 -6.44537,-1.46857 -6.60855,0 -11.25901,4.73205 -4.65046,4.65046 -4.65046,11.50377 0,6.77172 4.65046,11.66694 4.65046,4.81363 11.25901,4.81363 6.93489,0 11.42218,-5.05839 4.48728,-5.13998 4.48728,-11.74853 v -37.28526 h 3.58983 z"
               style="font-style:normal;font-variant:normal;font-weight:normal;font-stretch:normal;font-size:81.58699799px;font-family:Architekt;-inkscape-font-specification:'Architekt, Normal';font-variant-ligatures:normal;font-variant-caps:normal;font-variant-numeric:normal;fill:#808080;fill-opacity:1;stroke:#cccccc;stroke-width:2.03966999;stroke-opacity:1"
               id="path132-2-6-8"
               inkscape:connector-curvature="0" />
          </g>
        </g>
        <g
           id="g1090-0-4">
          <g
             aria-label="OS"
             transform="matrix(1.0073412,0,0,0.99271225,-63.9768,-45.401397)"
             id="text2806-36-6-3"
             style="font-style:normal;font-variant:normal;font-weight:normal;font-stretch:normal;font-size:80.51139832px;line-height:1.25;font-family:Architekt;-inkscape-font-specification:'Architekt, Normal';font-variant-ligatures:normal;font-variant-caps:normal;font-variant-numeric:normal;opacity:1;fill:#f9a406;fill-opacity:1;stroke:#faa405;stroke-width:2.01277995;stroke-opacity:1">
            <path
               d="m 248.64493,257.64815 q 0,11.91568 -8.21216,20.44989 -8.13166,8.53421 -20.77194,8.53421 -12.72081,0 -20.85246,-8.85625 -8.13165,-8.85626 -8.13165,-20.12785 0,-12.07671 8.69523,-20.53041 8.69523,-8.4537 20.28888,-8.4537 12.15722,0 20.5304,8.53421 8.4537,8.53421 8.4537,20.4499 z m -28.9841,-25.68314 q -10.46649,0 -17.87354,7.56807 -7.40704,7.56807 -7.40704,18.11507 0,10.22494 7.16551,17.95404 7.16552,7.64858 18.11507,7.64858 10.78852,0 17.95404,-7.40705 7.24602,-7.48756 7.24602,-18.19557 0,-10.62751 -7.48756,-18.11507 -7.40705,-7.56807 -17.7125,-7.56807 z"
               style="fill:#f9a406;fill-opacity:1;stroke:#faa405;stroke-width:2.01277995;stroke-opacity:1"
               id="path135-75-2-1"
               inkscape:connector-curvature="0" />
            <path
               d="m 276.16851,285.5856 h -21.41604 v -3.30097 h 20.61092 q 5.15273,0 8.69523,-2.25431 3.54251,-2.33484 3.54251,-7.16552 0,-8.21216 -8.61472,-12.07671 l -16.02177,-5.47477 q -8.61472,-3.86455 -8.61472,-12.15723 0,-6.92398 4.34761,-10.22494 4.42813,-3.30097 10.14444,-3.30097 h 19.24222 v 3.30097 h -18.3566 q -5.15272,0 -8.45369,2.49585 -3.22046,2.49585 -3.22046,7.56807 0,6.52143 8.29268,9.66137 l 16.34381,5.79682 q 8.61472,4.50864 8.61472,14.25052 0,5.15273 -3.78404,9.01727 -3.78403,3.86455 -11.3521,3.86455 z"
               style="fill:#f9a406;fill-opacity:1;stroke:#faa405;stroke-width:2.01277995;stroke-opacity:1"
               id="path137-3-6-4"
               inkscape:connector-curvature="0" />
          </g>
          <g
             aria-label="ald"
             transform="matrix(1.0419925,0,0,0.93910787,-64.83845,-38.798394)"
             id="text2798-5-1-9"
             style="font-style:normal;font-weight:normal;font-size:81.58699799px;line-height:1.25;font-family:sans-serif;opacity:1;fill:#41408c;fill-opacity:1;stroke:#41408c;stroke-width:2.03966999;stroke-opacity:1">
            <path
               d="m 112.37161,290.68246 q -1.63174,1.38698 -3.01872,2.28444 -1.30539,0.89745 -3.1003,1.79491 -2.77396,1.38698 -7.342834,1.38698 -8.077113,0 -13.788202,-5.46633 -5.71109,-5.54791 -5.71109,-13.86979 0,-8.07711 5.71109,-13.86979 5.792676,-5.87426 13.625028,-5.87426 8.566638,0 14.114548,5.95585 5.62951,5.95585 5.62951,13.46185 v 19.00977 h -3.58983 v -18.11231 q 0,-6.11902 -4.4057,-11.58535 -4.32411,-5.46633 -11.585354,-5.46633 -6.52696,0 -11.259006,4.73204 -4.650458,4.73205 -4.650458,11.74853 0,6.69014 4.568871,11.34059 4.568872,4.65046 11.340593,4.65046 3.997764,0 6.853304,-1.46856 2.93714,-1.46857 6.60855,-4.97681 z"
               style="font-style:normal;font-variant:normal;font-weight:normal;font-stretch:normal;font-size:81.58699799px;font-family:Architekt;-inkscape-font-specification:'Architekt, Normal';font-variant-ligatures:normal;font-variant-caps:normal;font-variant-numeric:normal;fill:#41408c;fill-opacity:1;stroke:#41408c;stroke-width:2.03966999;stroke-opacity:1"
               id="path128-6-8-2"
               inkscape:connector-curvature="0" />
            <path
               d="m 130.06961,295.49609 h -3.50824 v -56.70296 h 3.50824 z"
               style="font-style:normal;font-variant:normal;font-weight:normal;font-stretch:normal;font-size:81.58699799px;font-family:Architekt;-inkscape-font-specification:'Architekt, Normal';font-variant-ligatures:normal;font-variant-caps:normal;font-variant-numeric:normal;fill:#41408c;fill-opacity:1;stroke:#41408c;stroke-width:2.03966999;stroke-opacity:1"
               id="path130-2-7-0"
               inkscape:connector-curvature="0" />
            <path
               d="m 176.96429,276.07839 q 0,8.72981 -5.71109,14.4409 -5.71109,5.6295 -13.7882,5.6295 -7.83235,0 -13.70662,-5.6295 -2.77396,-2.77396 -4.24252,-6.2822 -1.46857,-3.50824 -1.46857,-7.75077 0,-8.1587 5.46633,-13.7882 5.54792,-5.6295 13.95138,-5.6295 4.81363,0 7.66918,1.46856 2.85554,1.46857 5.71109,3.75301 v 4.32411 q -3.75301,-3.50824 -6.9349,-4.97681 -3.1003,-1.46857 -6.44537,-1.46857 -6.60855,0 -11.25901,4.73205 -4.65046,4.65046 -4.65046,11.50377 0,6.77172 4.65046,11.66694 4.65046,4.81363 11.25901,4.81363 6.93489,0 11.42218,-5.05839 4.48728,-5.13998 4.48728,-11.74853 v -37.28526 h 3.58983 z"
               style="font-style:normal;font-variant:normal;font-weight:normal;font-stretch:normal;font-size:81.58699799px;font-family:Architekt;-inkscape-font-specification:'Architekt, Normal';font-variant-ligatures:normal;font-variant-caps:normal;font-variant-numeric:normal;fill:#41408c;fill-opacity:1;stroke:#41408c;stroke-width:2.03966999;stroke-opacity:1"
               id="path132-9-9-6"
               inkscape:connector-curvature="0" />
          </g>
        </g>
      </g>
      <g
         id="g1219-2-8">
        <path
           sodipodi:nodetypes="cccccsscc"
           d="m 50.036425,81.099913 c -3.136461,-17.81439 15.86354,-40.814385 43.58938,-32.770398 17.456725,-24.022202 51.274155,-24.043987 68.833575,0 23.44058,-7.549555 46.94615,10.956008 43.58938,32.770398 14.8512,0.18561 28.8512,16.18561 28.59515,34.185637 0.25605,29 -29.74395,36.58375 -34.80991,36.58145 L 57.073205,151.802 c -9.173231,-0.004 -37.17325,-10.51645 -35.65477,-36.69561 0.48152,-18.820867 14.481529,-33.820867 28.61799,-34.006477 z"
           style="opacity:0.73999999;fill:#808080;fill-opacity:1;stroke-width:2.01501012;filter:url(#filter1138-3-5)"
           id="rect1948-4-0-9"
           inkscape:connector-curvature="0" />
        <path
           sodipodi:nodetypes="cccccsscc"
           d="M 45.536415,77.513929 C 42.399955,59.699546 61.399955,36.699546 89.1258,44.743533 c 17.45673,-24.022202 51.27415,-24.043987 68.83357,0 23.44058,-7.549555 46.94615,10.956013 43.58938,32.770396 14.8512,0.185617 28.8512,16.185617 28.59515,34.185621 0.25605,29 -29.74395,36.58375 -34.80991,36.58145 L 52.573195,148.216 c -9.17323,-0.004 -37.17324,-10.51645 -35.65476,-36.69561 0.48152,-18.820844 14.48152,-33.820844 28.61798,-34.006461 z"
           style="opacity:1;fill:#41408c;fill-opacity:1;stroke-width:2.01501012"
           id="rect1948-1-2-2"
           inkscape:connector-curvature="0" />
        <path
           id="rect1948-3-2-3-6"
           style="opacity:1;fill:none;fill-opacity:1;stroke:#ffffff;stroke-width:7.91900015;stroke-miterlimit:4;stroke-dasharray:none"
           d="M 58.467304,83.795043 C 57,69.700001 64,45.700001 98.553659,56.838607 104,42.700001 116,38.700001 124.65385,38.634697 141.49443,39.700001 145.48302,48.700001 150.26262,57.752761 171,46.700001 196,56.700001 191.76541,83.563518 201,84.700001 217,92.700001 217.86073,109.27992 c 0.88827,17.11041 -14.35589,28.36499 -26.40105,28.45677 L 59.796999,138.73994 C 45,138.85269 27.786612,128.59041 28.626303,110.54276 29.367686,94.60808 43.242364,84.532665 58.467304,83.795043 Z"
           sodipodi:nodetypes="cccccssssc"
           inkscape:connector-curvature="0" />
        <path
           inkscape:connector-curvature="0"
           style="opacity:1;fill:#000000;fill-opacity:1;stroke:none;stroke-width:9.53749657;stroke-miterlimit:4;stroke-dasharray:none;stroke-opacity:0.77647059"
           d="m 109.44272,60.386329 v 4.324219 h 9.19922 v -4.324219 z m 9.19922,4.324219 v 41.453122 h 4.63672 V 87.591407 h 9.0332 v 18.564453 h 4.74609 V 87.591407 h 9.08008 v 18.564453 h 4.43164 V 87.569923 h 9.35547 V 82.94297 h -9.35937 v 4.626953 h -4.37891 v -4.617188 h -9.1582 v 4.617188 h -4.69727 v -4.617188 h -9.05273 V 64.710548 Z m -13.8125,-0.0332 V 92.15391 h -8.91211 v 4.759766 h 8.91211 v 13.691404 h 4.57031 V 96.913673 92.153907 64.677345 Z m 55.08984,22.921875 v 41.275387 h -55.08984 v -4.44922 h -4.42969 V 142.4 h 4.42969 55.0957 V 128.89609 H 164.556 V 87.59922 Z M 91.056,96.950785 v 22.701165 h 4.86133 V 96.950782 Z m 4.84375,22.708985 V 124.4 h 4.5 v -4.74023 z"
           id="rect880-7-6" />
        <path
           inkscape:connector-curvature="0"
           style="opacity:1;fill:#ffffff;fill-opacity:1;stroke:none;stroke-width:9.95102692;stroke-miterlimit:4;stroke-dasharray:none;stroke-opacity:0.77647059"
           d="M 109.37436,64.700782 V 106.4 h 0.0254 v 4.20508 H 104.7767 V 96.913673 h -8.85937 v 22.730467 h 4.48242 V 124.4 h 4.36914 v 4.46484 h 4.63086 v -0.002 H 159.8978 V 106.15 h -0.01 V 87.59922 h -9.32985 V 106.15 h -4.48242 V 87.59922 h -9.01758 V 106.15 h -4.7832 V 87.59922 h -9.01562 V 106.15 H 118.6478 V 64.700782 Z"
           id="rect993-5-4" />
      </g>
    </g>
  </g>
</svg>
